<?xml version="1.0" standalone="no"?>
<!DOCTYPE svg PUBLIC "-//W3C//DTD SVG 20010904//EN"
 "http://www.w3.org/TR/2001/REC-SVG-20010904/DTD/svg10.dtd">
<svg version="1.0" xmlns="http://www.w3.org/2000/svg"
 width="500.000000pt" height="500.000000pt" viewBox="0 0 500.000000 500.000000"
 preserveAspectRatio="xMidYMid meet">

<g transform="translate(0.000000,500.000000) scale(0.100000,-0.100000)"
fill="white" stroke="none">
<path d="M2260 4225 c0 -3 4 -13 9 -23 30 -59 36 -81 35 -136 0 -68 -15 -101
-89 -196 -67 -86 -85 -127 -85 -193 0 -64 27 -127 78 -184 50 -55 54 -37 12
43 -42 79 -51 135 -30 189 6 15 37 61 69 103 73 95 91 138 91 214 0 67 -35
154 -70 176 -11 7 -20 10 -20 7z"/>
<path d="M2700 4200 c-30 -36 -59 -113 -60 -156 0 -50 30 -131 65 -171 58 -69
104 -144 111 -181 9 -47 -9 -115 -47 -173 -31 -48 -34 -59 -20 -59 17 0 71 64
96 115 31 64 33 139 6 193 -11 20 -42 69 -71 107 -79 107 -92 138 -87 204 5
59 27 131 39 131 5 0 8 5 8 10 0 18 -15 11 -40 -20z"/>
<path d="M2090 4164 c0 -11 6 -26 12 -32 8 -8 13 -45 13 -101 l0 -89 -50 -71
c-27 -39 -60 -85 -72 -102 -13 -18 -30 -56 -40 -85 -16 -51 -16 -57 1 -111 10
-32 27 -71 39 -86 23 -34 99 -108 104 -103 2 2 -16 35 -40 72 -87 138 -85 187
12 314 98 127 120 190 97 278 -16 58 -76 150 -76 116z"/>
<path d="M2874 4138 c-43 -62 -60 -135 -44 -196 13 -54 35 -91 91 -159 53 -64
81 -126 81 -174 -1 -43 -35 -123 -76 -178 -44 -60 -29 -57 33 5 46 47 62 72
80 125 21 65 21 66 3 126 -12 39 -42 91 -83 147 -80 108 -96 157 -78 241 7 33
17 63 22 66 5 4 7 14 5 24 -2 12 -11 5 -34 -27z"/>
<path d="M1916 4083 c4 -16 11 -36 15 -45 14 -26 10 -105 -6 -144 -8 -20 -39
-68 -69 -108 -76 -101 -89 -131 -90 -201 -1 -69 23 -127 77 -187 44 -49 66
-50 37 -2 -46 74 -61 116 -61 169 0 63 15 96 88 187 81 102 99 172 70 269 -21
69 -76 124 -61 62z"/>
<path d="M3057 4092 c-48 -53 -62 -174 -28 -247 10 -22 39 -66 65 -98 70 -87
86 -120 86 -183 0 -57 -21 -110 -66 -170 -30 -39 -31 -62 -2 -34 12 11 25 20
29 20 8 0 60 77 76 114 17 38 16 135 -1 177 -8 19 -37 65 -65 102 -28 38 -60
86 -71 107 -24 47 -26 120 -6 178 16 45 8 62 -17 34z"/>
<path d="M1733 3217 c-34 -7 -64 -14 -66 -17 -3 -3 -8 -133 -12 -290 -3 -157
-10 -301 -14 -320 -4 -20 -6 -72 -3 -115 l4 -80 147 -1 c168 0 263 -16 420
-70 113 -39 167 -68 208 -114 14 -17 32 -30 38 -30 25 0 36 734 12 776 -15 27
-98 115 -123 131 -68 44 -122 69 -214 100 -92 31 -120 36 -220 39 -63 1 -143
-3 -177 -9z"/>
<path d="M2960 3201 c-190 -45 -328 -137 -384 -256 -23 -48 -24 -773 -2 -781
8 -3 37 11 63 31 53 40 249 138 311 155 75 20 257 43 350 44 63 1 95 5 101 14
4 7 7 189 7 405 l-1 392 -45 3 c-176 12 -329 9 -400 -7z"/>
<path d="M3480 3049 c-7 -12 -9 -36 -5 -58 6 -33 26 -481 29 -651 1 -70 0 -75
-19 -70 -11 2 -121 4 -245 4 -210 0 -232 -1 -333 -26 -59 -15 -123 -35 -141
-45 -50 -27 -136 -93 -136 -105 0 -15 56 -2 116 27 51 25 84 32 84 17 0 -4 84
-7 188 -7 163 0 214 -4 395 -32 114 -18 214 -33 222 -33 13 0 15 25 16 163 1
121 4 151 10 117 8 -41 13 -300 6 -307 -5 -4 -241 34 -355 58 -94 20 -122 22
-330 16 -135 -3 -241 -11 -262 -18 -39 -13 -80 -46 -80 -65 0 -15 33 -24 51
-14 32 17 236 32 358 26 145 -8 338 -38 426 -66 33 -11 80 -23 105 -26 25 -4
58 -13 74 -19 24 -10 31 -10 46 4 13 12 14 22 7 44 -5 16 -7 50 -3 76 6 49 -7
330 -23 491 -20 193 -21 216 -11 200 10 -16 13 -33 30 -205 7 -60 16 -126 21
-145 7 -31 19 -263 23 -465 l1 -60 -38 -3 c-24 -2 -56 5 -83 17 -24 12 -55 21
-70 21 -14 0 -58 11 -97 24 -93 30 -294 63 -427 70 -146 8 -277 -14 -367 -62
-59 -31 -154 -30 -236 2 -94 37 -131 44 -267 51 -171 9 -377 -18 -680 -89 -36
-9 -84 -16 -108 -16 -59 0 -65 19 -57 184 10 207 14 256 25 341 5 44 14 138
20 208 10 130 21 176 34 142 8 -21 -9 -277 -29 -435 -16 -132 -25 -373 -14
-391 5 -9 29 -7 100 9 357 81 484 96 747 87 190 -7 204 -6 200 10 -2 12 -28
26 -78 43 -67 23 -95 26 -263 30 -138 3 -217 0 -300 -12 -61 -9 -132 -18 -157
-20 -71 -8 -173 -23 -200 -30 l-25 -7 3 123 c1 68 9 157 17 198 25 131 36 266
30 376 -6 115 -10 131 -29 115 -7 -6 -15 -9 -18 -6 -24 24 -50 -116 -68 -355
-5 -80 -15 -203 -20 -275 -14 -172 -17 -313 -7 -349 8 -28 9 -29 60 -23 63 8
162 23 237 37 30 5 129 19 220 31 91 11 194 25 230 30 150 20 289 3 400 -48
47 -22 62 -25 123 -19 38 3 81 13 96 20 15 8 45 17 66 21 22 4 59 13 83 21
107 35 305 11 824 -101 69 -15 133 -25 142 -22 13 5 16 25 16 109 0 98 -24
403 -36 460 -3 14 -12 82 -19 150 -8 68 -19 146 -25 173 -5 28 -13 66 -16 86
-8 43 -39 88 -52 74 -6 -6 -4 -76 4 -185 8 -96 12 -179 10 -185 -4 -11 -8 21
-31 249 -8 81 -18 152 -21 157 -3 5 -14 9 -25 9 -24 0 -25 -36 -3 -140 18 -86
35 -492 22 -528 -4 -13 -8 -39 -8 -58 0 -38 0 -38 -50 -24 -35 9 -287 19 -530
20 -163 2 -130 16 68 31 176 13 369 6 431 -16 24 -8 46 -13 48 -11 3 2 7 55
10 118 4 84 1 136 -12 203 -13 72 -16 121 -11 245 8 221 -18 358 -54 289z"/>
<path d="M1526 3038 c-2 -7 -7 -105 -10 -218 -7 -239 -23 -465 -35 -507 -5
-17 -6 -52 -3 -78 l5 -47 41 6 c23 3 70 10 106 16 96 14 261 11 379 -8 l105
-17 -292 0 c-271 0 -292 -1 -305 -18 -8 -13 -23 -18 -41 -15 -28 3 -29 4 -31
73 -2 39 1 88 6 110 14 61 30 223 39 390 5 83 10 159 12 170 4 24 -26 32 -49
14 -12 -10 -14 -25 -9 -64 8 -70 -12 -417 -30 -493 -8 -35 -14 -110 -14 -168
l0 -104 49 0 c26 0 61 4 77 10 44 14 294 40 439 46 72 3 154 10 183 16 61 13
120 -2 205 -53 67 -40 117 -38 70 3 -37 32 -160 97 -210 112 -189 54 -461 82
-617 62 l-69 -9 7 54 c9 73 29 489 30 619 1 92 -1 105 -17 108 -9 2 -19 -2
-21 -10z"/>
<path d="M2456 2069 c-39 -30 -35 -66 9 -85 76 -32 165 -7 165 46 0 23 -7 33
-30 45 -43 22 -112 19 -144 -6z"/>
</g>
</svg>
